<svg xmlns="http://www.w3.org/2000/svg" width="247" height="65.679" viewBox="0 0 247 65.679">
 <g transform="matrix(1.3333 0 0 -1.3333 -78.129 83.986)">
  <g transform="matrix(.61058 0 0 .61058 59.375 14.581)">
   <path d="m0 78.22v-21.059h12.034v-36.101h-12.034v-21.06h54.152v21.06h-12.034v36.101h12.034v21.059zm276.9-2.8682c-3.908 0-6.7456-2.9483-6.7456-6.5479v-0.03516c0-3.5997 2.802-6.5112 6.709-6.5112 3.907 0 6.7456 2.9476 6.7456 6.5464v0.03662c0 3.5985-2.802 6.5112-6.709 6.5112zm-74.37-0.03662c-2.587 0-4.4312-1.519-4.4312-3.8159v-0.03662c0-2.5137 1.6443-3.2197 4.1953-3.8701 2.115-0.543 2.5503-0.9045 2.5503-1.6084v-0.03809c0-0.7414-0.68666-1.1924-1.8267-1.1924-1.446 0-2.6403 0.59602-3.7793 1.5366l-1.645-1.9702c1.519-1.3566 3.4531-2.0273 5.3701-2.0273 2.732 0 4.6494 1.4121 4.6494 3.9258v0.03516c0 2.207-1.4491 3.1291-4.0151 3.7983-2.19 0.5613-2.7319 0.83206-2.7319 1.6641v0.03662c0 0.6152 0.56098 1.103 1.626 1.103 1.069 0 2.172-0.47065 3.293-1.248l1.4487 2.0991c-1.285 1.03-2.8606 1.6084-4.7036 1.6084zm-107-0.18018v-7.2349c0-3.7266 2.0802-5.625 5.4814-5.625 3.399 0 5.5518 1.8805 5.5518 5.7144v7.1455h-2.7847v-7.2524c0-2.007-1.0315-3.0396-2.7305-3.0396-1.7019 0-2.7305 1.0679-2.7305 3.1304v7.1616zm19.017 0v-12.661h2.7495v8.0479l6.1304-8.0479h2.3701v12.661h-2.7495v-7.7959l-5.9312 7.7959zm19.437 0v-12.661h2.7861v12.661zm9.6533 0 5.1167-12.751h2.4595l5.1196 12.751h-3.0044l-3.3076-8.9165-3.3106 8.9165zm19.537 0v-12.661h9.6401v2.477h-6.873v2.6587h5.9692v2.4771h-5.9692v2.5693h6.7822v2.4785zm17.279 0v-12.661h2.7847v4.0503h2.187l2.7144-4.0503h3.2549l-3.0938 4.5205c1.61 0.5981 2.7129 1.8814 2.7129 3.9243v0.03662c0 2.6042-1.7889 4.1792-4.7739 4.1792zm34.679 0v-12.661h2.7847v12.661zm9.7471 0v-2.5693h3.8525v-10.091h2.7847v10.091h3.8511v2.5693zm16.739 0 4.8648-7.6685v-4.9922h2.7847v5.0464l4.8647 7.6143h-3.1655l-3.0747-5.083-3.0205 5.083zm49.46 0v-12.661h2.7847v4.8999h6.0396v2.5327h-6.0396v2.6953h6.854v2.5327zm-14.21-2.3525c2.244 0 3.8335-1.8078 3.8335-3.9785v-0.03516c0-2.1711-1.5549-3.9434-3.7969-3.9434-2.243 0-3.8335 1.8086-3.8335 3.9785v0.03662c0 2.1688 1.5549 3.9419 3.7969 3.9419zm-93.63-0.1626h2.7656c1.357 0 2.19-0.61502 2.19-1.8076v-0.03662c0-1.0664-0.77828-1.79-2.1343-1.79h-2.8213zm54.681-19.011c-10.008 0-17.281-7.5515-17.281-16.771v-0.09375c0-9.2199 7.182-16.68 17.19-16.68s17.281 7.552 17.281 16.774v0.09082c0 9.2207-7.181 16.68-17.19 16.68zm50.004-0.09228c-6.625 0-11.351-3.8924-11.351-9.7764v-0.09229c0-6.4406 4.215-8.2475 10.749-9.9155 5.421-1.3906 6.5332-2.3157 6.5332-4.1235v-0.09229c0-1.9008-1.7612-3.0586-4.6802-3.0586-3.706 0-6.7636 1.5293-9.6826 3.9375l-4.2173-5.0493c3.891-3.4758 8.8502-5.1885 13.762-5.1885 6.996 0 11.908 3.6138 11.908 10.053v0.09229c0 5.6535-3.7071 8.0161-10.286 9.731-5.607 1.4363-6.9976 2.131-6.9976 4.2627v0.09228c0 1.575 1.4359 2.8271 4.1689 2.8271 2.735 0 5.5611-1.2057 8.4331-3.1978l3.709 5.3745c-3.29 2.6406-7.3213 4.1235-12.048 4.1235zm-191.3-0.4629v-32.435h7.1353v32.435zm15.612 0v-32.435h23.304v6.4878h-16.169v25.947zm28.532 0v-32.435h23.306v6.4878h-16.172v25.947zm28.689 0v-32.435h7.1338v32.435zm15.611 0v-32.435h7.043v20.619l15.706-20.619h6.0703v32.435h-7.043v-19.969l-15.196 19.969zm76.947 0v-32.435h7.1367v32.435zm-24.188-6.022c5.746 0 9.8218-4.6353 9.8218-10.194v-0.09375c0-5.5593-3.985-10.1-9.731-10.1-5.745 0-9.8218 4.6333-9.8218 10.194v0.09082c0 5.5605 3.985 10.103 9.731 10.103zm-45.791-35.706c-2.509 0-4.2612-1.903-4.2612-4.2261v-0.023437c0-2.3469 1.7859-4.2026 4.1909-4.2026 1.575 0 2.5106 0.55978 3.3516 1.459l-1.1455 1.1558c-0.641-0.58398-1.213-0.95654-2.146-0.95654-1.402 0-2.3701 1.1663-2.3701 2.5679v0.023437c0 1.4 0.99212 2.5459 2.3701 2.5459 0.816 0 1.4589-0.35205 2.0889-0.92432l1.144 1.3198c-0.759 0.7469-1.6817 1.2612-3.2226 1.2612zm90.977 0c-2.475 0-4.2847-1.903-4.2847-4.2261v-0.023437c0-2.4172 1.7514-4.2026 4.2964-4.2026 1.494 0 2.6493 0.58281 3.4893 1.2949v3.5493h-3.5493v-1.5527h1.8106v-1.166c-0.455-0.32734-1.0394-0.49072-1.6934-0.49072-1.448 0-2.4741 1.0972-2.4741 2.5913v0.023437c0 1.3887 1.0382 2.5459 2.3452 2.5459 0.946 0 1.5062-0.30518 2.1372-0.83057l1.1323 1.3667c-0.852 0.7234-1.7385 1.1206-3.2095 1.1206zm-143.22-0.082031-3.5024-8.2295h1.834l0.74707 1.8325h3.4556l0.74707-1.8325h1.8794l-3.501 8.2295zm28.154 0-3.501-8.2295h1.8325l0.74707 1.8325h3.4556l0.74707-1.8325h1.8794l-3.5024 8.2295zm50.191 0-3.5024-8.2295h1.834l0.74707 1.8325h3.4556l0.74707-1.8325h1.8794l-3.5024 8.2295zm40.901 0-3.5024-8.2295h1.834l0.74707 1.8325h3.4556l0.74707-1.8325h1.8779l-3.501 8.2295zm-162.44-0.057129v-4.6699c0-2.4055 1.3431-3.6313 3.5376-3.6313 2.194 0 3.583 1.2153 3.583 3.6899v4.6113h-1.7974v-4.6816c0-1.2961-0.66568-1.9614-1.7637-1.9614-1.0972 0-1.7622 0.68877-1.7622 2.02v4.623zm13.808 0v-8.1724h1.7988v2.6133h1.4121l1.752-2.6133h2.1006l-1.9966 2.918c1.039 0.38555 1.752 1.2144 1.752 2.5327v0.023437c0 0.77032-0.2452 1.4126-0.7002 1.8677-0.537 0.5371-1.3428 0.83057-2.3818 0.83057zm13.295 0v-8.1724h3.8877c1.844 0 3.0601 0.74707 3.0601 2.2412v0.023437c0 1.0976-0.58477 1.6447-1.5308 2.0068 0.58299 0.32734 1.0737 0.8418 1.0737 1.7637v0.023437c0 0.56054-0.18657 1.0161-0.55957 1.3887-0.467 0.468-1.2022 0.7251-2.1372 0.7251zm27.362 0v-8.1724h1.7739v5.1943l3.958-5.1943h1.5293v8.1724h-1.7739v-5.0332l-3.8291 5.0332zm50.542 0v-8.1724h1.7974v3.2798h3.3164v-3.2798h1.7974v8.1724h-1.7974v-3.2344h-3.3164v3.2344zm27.804 0v-8.1724h1.7622v5.2998l2.2778-3.4556h0.0454l2.2998 3.4907v-5.335h1.7856v8.1724h-1.9365l-2.1489-3.457-2.1475 3.457zm14.988 0v-8.1724h1.7974v2.4507h1.3652c1.833 0 3.3047 0.98115 3.3047 2.8726v0.023437c0 1.6692-1.1799 2.8257-3.1289 2.8257zm25.995 0v-8.1724h1.7974v8.1724zm22.702 0v-8.1724h1.7739v5.1943l3.958-5.1943h1.5293v8.1724h-1.7754v-5.0332l-3.8291 5.0332zm-167.64-1.5762h1.7739c0.759 0 1.1792-0.30518 1.1792-0.84229v-0.023437c0-0.60625-0.50092-0.86279-1.2949-0.86279h-1.6582zm-13.248-0.046875h1.7856c0.875 0 1.4136-0.39677 1.4136-1.1675v-0.023438c0-0.68946-0.50342-1.1572-1.3784-1.1572h-1.8208zm133.99 0h1.3887c0.9 0 1.459-0.43193 1.459-1.2378v-0.023437c0-0.7-0.52383-1.2378-1.4238-1.2378h-1.4238zm-105.6-0.479 1.0869-2.6499h-2.1724zm28.154 0 1.0854-2.6499h-2.1709zm50.191 0 1.0869-2.6499h-2.1709zm40.901 0 1.0854-2.6499h-2.1709zm-81.253-1.5996v-1.7051h3.5962v1.7051zm-53.133-1.0972h2.0786c0.921 0 1.3315-0.33887 1.3315-0.8877v-0.023437c0-0.60742-0.48041-0.88623-1.2744-0.88623h-2.1357z" fill="#13294b"/>
   <path d="m42.119 60.17h9.0243v15.042h-48.136v-15.042h9.0262c1.6598 0 3.0078-1.3457 3.0078-3.0086v-36.103c0-1.6594-1.348-3.0078-3.0078-3.0078h-9.0262v-15.041h48.136v15.041h-9.0243c-1.6617 0-3.0093 1.3484-3.0093 3.0078v36.103c0 1.6629 1.3476 3.0086 3.0093 3.0086" fill="#ff552e"/>
  </g>
 </g>
</svg>
